<svg preserveAspectRatio="xMidYMid meet" viewBox="212.992 344.064 1161.216 315.392" xmlns="http://www.w3.org/2000/svg" version="1.0" style="max-height: 500px" width="1161.216" height="315.392">

<g stroke="none" fill="#000000" transform="translate(0.000000,1024.000000) scale(0.100000,-0.100000)">
<path d="M3325 6603 c-300 -19 -613 -92 -819 -193 -99 -49 -159 -97 -188 -153&#xA;-54 -108 -40 -606 28 -932 33 -159 112 -393 179 -533 174 -363 412 -599 811&#xA;-802 129 -67 162 -72 242 -42 113 43 397 227 526 341 307 271 513 677 571&#xA;1125 36 282 36 706 0 808 -22 63 -56 90 -200 159 -340 163 -769 246 -1150 222z&#xA;m345 -274 c348 -31 653 -131 733 -240 29 -41 26 -242 -7 -371 -68 -269 -237&#xA;-466 -511 -597 -443 -213 -412 -195 -511 -294 -68 -68 -99 -109 -122 -157 -31&#xA;-66 -60 -181 -64 -258 l-3 -42 -65 42 c-105 69 -210 180 -256 272 -34 70 -38&#xA;87 -38 150 0 136 68 273 186 381 100 90 186 111 328 80 36 -8 94 -14 130 -15&#xA;122 0 245 82 305 205 24 49 29 71 29 139 1 94 -26 165 -87 233 -168 185 -502&#xA;127 -627 -110 -48 -91 -98 -159 -195 -272 -47 -55 -118 -144 -158 -197 -40&#xA;-53 -75 -97 -79 -97 -19 -2 -79 261 -97 421 -14 124 -14 421 0 471 8 31 22 46&#xA;71 77 213 138 655 214 1038 179z m686 -1242 c-73 -220 -184 -396 -355 -567&#xA;-125 -125 -272 -232 -380 -275 -78 -32 -94 -31 -125 5 -32 39 -46 89 -46 167&#xA;0 95 31 166 104 238 54 54 88 75 284 173 253 126 336 180 460 297 48 46 88 79&#xA;90 75 2 -5 -13 -56 -32 -113z"/>
<path d="M5244 5916 c-49 -22 -74 -61 -74 -119 0 -44 4 -53 39 -88 34 -34 44&#xA;-39 85 -39 80 0 128 38 141 111 7 44 -19 96 -64 126 -38 26 -81 29 -127 9z"/>
<path d="M6250 5689 l0 -241 -32 33 c-100 99 -291 116 -446 38 -287 -143 -313&#xA;-626 -45 -810 69 -48 146 -71 243 -72 110 -2 173 19 241 81 l52 47 -6 -58 -7&#xA;-57 115 0 115 0 0 640 0 640 -115 0 -115 0 0 -241z m-114 -347 c51 -26 98 -78&#xA;115 -129 22 -62 17 -189 -9 -248 -45 -98 -103 -135 -217 -135 -86 0 -139 22&#xA;-183 76 -79 96 -83 281 -7 379 25 34 64 60 115 76 41 14 142 3 186 -19z"/>
<path d="M12371 5912 c-65 -35 -89 -118 -51 -179 39 -64 128 -83 191 -40 139&#xA;94 8 298 -140 219z"/>
<path d="M11180 5280 l0 -630 115 0 115 0 0 268 c0 296 7 347 57 394 38 36 73&#xA;48 141 48 68 0 112 -23 139 -72 16 -29 18 -67 21 -335 l3 -303 115 0 114 0 0&#xA;263 c0 402 -17 495 -105 576 -66 61 -105 74 -215 75 -110 1 -160 -17 -229 -79&#xA;l-41 -37 0 231 0 231 -115 0 -115 0 0 -630z"/>
<path d="M10660 5660 l0 -110 -65 0 -65 0 0 -95 0 -95 65 0 65 0 0 -275 c0&#xA;-299 1 -304 57 -357 62 -60 193 -91 307 -74 l46 7 0 87 0 87 -63 1 c-77 1&#xA;-121 22 -136 65 -7 20 -11 115 -11 245 l0 214 105 0 105 0 0 95 0 95 -105 0&#xA;-105 0 0 110 0 110 -100 0 -100 0 0 -110z"/>
<path d="M7040 5557 c-57 -16 -112 -49 -144 -88 -14 -16 -26 -29 -28 -29 -2 0&#xA;-1 25 0 55 l4 55 -111 0 -111 0 0 -450 0 -450 115 0 114 0 3 303 3 304 28 36&#xA;c42 55 78 70 158 65 79 -4 112 -27 129 -87 5 -20 10 -166 10 -328 l0 -293 110&#xA;0 110 0 0 268 c0 148 5 283 10 303 25 90 86 140 173 142 70 1 112 -17 139 -62&#xA;22 -35 23 -44 26 -343 l3 -308 110 0 110 0 -3 353 c-3 346 -3 353 -27 405 -41&#xA;90 -125 146 -238 158 -110 12 -234 -30 -304 -102 l-32 -33 -43 48 c-25 28 -62&#xA;56 -86 66 -56 22 -171 28 -228 12z"/>
<path d="M9016 5559 c-127 -19 -229 -104 -274 -229 l-21 -60 109 0 110 0 14&#xA;33 c25 60 59 81 135 85 90 5 136 -15 162 -72 10 -23 19 -58 19 -78 l0 -38&#xA;-117 0 c-65 0 -147 -5 -183 -11 -164 -26 -256 -114 -268 -255 -12 -156 95&#xA;-280 259 -299 105 -13 240 32 295 98 l24 29 0 -56 0 -56 106 0 106 0 -5 323&#xA;c-5 357 -10 390 -70 469 -18 24 -51 53 -72 66 -83 47 -218 68 -329 51z m242&#xA;-556 c-3 -27 -13 -65 -23 -87 -49 -103 -212 -141 -287 -66 -48 49 -35 139 25&#xA;172 19 10 114 20 256 26 l34 2 -5 -47z"/>
<path d="M13005 5556 c-157 -38 -280 -157 -320 -311 -33 -127 -12 -305 47&#xA;-407 32 -54 111 -129 166 -157 103 -53 268 -64 389 -27 121 38 226 139 274&#xA;265 26 69 36 213 20 292 -37 177 -168 312 -339 348 -67 14 -173 13 -237 -3z&#xA;m198 -198 c61 -18 122 -82 141 -147 20 -67 21 -153 2 -215 -38 -126 -160 -191&#xA;-291 -155 -55 15 -127 91 -144 152 -19 67 -10 201 16 252 54 104 161 147 276&#xA;113z"/>
<path d="M5190 5100 l0 -450 115 0 115 0 0 450 0 450 -115 0 -115 0 0 -450z"/>
<path d="M9632 5208 l3 -343 33 -68 c56 -113 137 -159 281 -159 92 0 169 26&#xA;229 78 l42 36 0 -51 0 -51 105 0 105 0 0 450 0 451 -107 -3 -108 -3 -5 -290&#xA;c-6 -329 -6 -332 -89 -390 -36 -25 -52 -30 -104 -30 -77 0 -120 27 -150 94&#xA;-19 43 -20 67 -21 331 l-1 285 -108 3 -108 3 3 -343z"/>
<path d="M12330 5100 l0 -450 110 0 110 0 0 450 0 450 -110 0 -110 0 0 -450z"/>
<path d="M8140 5108 l0 -93 230 0 230 0 0 93 0 92 -230 0 -230 0 0 -92z"/>
<path d="M12124 4830 c-59 -24 -72 -104 -25 -151 53 -53 136 -30 161 45 26 80&#xA;-52 140 -136 106z"/>
</g>
</svg>